<svg width="23" height="26" viewBox="0 0 23 26" fill="none" xmlns="http://www.w3.org/2000/svg">
<path d="M21.073 18.6298C20.3247 18.1735 19.1968 17.4837 19.2129 16.7514C19.3251 12.0661 18.1973 8.4951 15.9576 6.43632C15.4445 5.96408 14.8779 5.57673 14.2685 5.27959C14.6962 4.73306 14.9474 4.06979 14.9474 3.35347C14.9474 1.50694 13.2797 0 11.2271 0C9.17455 0 7.50684 1.50694 7.50684 3.35347C7.50684 4.06979 7.75807 4.73306 8.18569 5.27959C7.57633 5.57673 7.00974 5.96408 6.4966 6.43632C4.25695 8.5004 3.13445 12.0661 3.24136 16.7514C3.25739 17.4837 2.12955 18.1735 1.38122 18.6298C0.65427 19.0755 -0.254418 19.6326 0.0662954 20.5665C0.387009 21.5004 0.862733 21.7179 6.6035 21.7657C6.86542 23.8563 8.75763 26 11.2271 26C13.6966 26 15.5835 23.8563 15.8507 21.7657C21.5915 21.7179 22.0726 21.5004 22.3879 20.5665C22.7087 19.6326 21.8053 19.0755 21.073 18.6298ZM11.2325 2.1649C11.9594 2.1649 12.5474 2.69551 12.5474 3.35347C12.5474 4.00612 11.9594 4.54204 11.2325 4.54204C10.5055 4.54204 9.91754 4.01143 9.91754 3.35347C9.91754 2.70081 10.5055 2.1649 11.2325 2.1649ZM11.2325 23.8351C10.2169 23.8351 9.29215 22.7898 9.04627 21.7816C9.677 21.7816 12.7879 21.7816 13.4187 21.7816C13.1728 22.7898 12.2481 23.8351 11.2325 23.8351ZM4.03245 19.5531C4.88769 18.8792 5.67878 17.9612 5.64671 16.709C5.55049 12.6763 6.46453 9.56693 8.21776 7.95387C9.0623 7.17387 10.0779 6.7653 11.2325 6.73347C12.387 6.7653 13.4026 7.17387 14.2472 7.95387C16.0004 9.56693 16.9091 12.6763 16.8182 16.709C16.7915 17.9612 17.5772 18.8792 18.4325 19.5531C16.4334 19.6114 6.03156 19.6114 4.03245 19.5531Z" fill="white"/>
</svg>
