<svg width="30" height="30" viewBox="0 0 30 30" fill="none" xmlns="http://www.w3.org/2000/svg">
<g filter="url(#filter0_d_33_153)">
<path d="M22.831 19.7637C22.1978 19.3776 21.2435 18.7939 21.2571 18.1743C21.3521 14.2098 20.3977 11.1882 18.5026 9.44613C18.0684 9.04653 17.589 8.71878 17.0734 8.46735C17.4352 8.0049 17.6478 7.44368 17.6478 6.83755C17.6478 5.2751 16.2367 4 14.4999 4C12.7631 4 11.352 5.2751 11.352 6.83755C11.352 7.44368 11.5645 8.0049 11.9264 8.46735C11.4108 8.71878 10.9313 9.04653 10.4971 9.44613C8.60204 11.1927 7.65223 14.2098 7.74269 18.1743C7.75626 18.7939 6.80193 19.3776 6.16873 19.7637C5.55361 20.1408 4.78472 20.6123 5.0561 21.4025C5.32747 22.1927 5.73001 22.3767 10.5876 22.4172C10.8092 24.1861 12.4103 26 14.4999 26C16.5895 26 18.186 24.1861 18.4122 22.4172C23.2698 22.3767 23.6768 22.1927 23.9437 21.4025C24.215 20.6123 23.4507 20.1408 22.831 19.7637V19.7637ZM14.5044 5.83184C15.1195 5.83184 15.617 6.28082 15.617 6.83755C15.617 7.3898 15.1195 7.84327 14.5044 7.84327C13.8893 7.84327 13.3918 7.39429 13.3918 6.83755C13.3918 6.28531 13.8893 5.83184 14.5044 5.83184V5.83184ZM14.5044 24.1682C13.6451 24.1682 12.8626 23.2837 12.6545 22.4306C13.1882 22.4306 15.8206 22.4306 16.3543 22.4306C16.1462 23.2837 15.3638 24.1682 14.5044 24.1682V24.1682ZM8.41208 20.5449C9.13574 19.9747 9.80513 19.198 9.77799 18.1384C9.69658 14.7261 10.47 12.0951 11.9535 10.7302C12.6681 10.0702 13.5275 9.72449 14.5044 9.69755C15.4813 9.72449 16.3407 10.0702 17.0553 10.7302C18.5388 12.0951 19.3077 14.7261 19.2308 18.1384C19.2082 19.198 19.8731 19.9747 20.5967 20.5449C18.9052 20.5943 10.1036 20.5943 8.41208 20.5449Z" fill="white"/>
</g>
<defs>
<filter id="filter0_d_33_153" x="1.86189" y="0.861892" width="25.2762" height="28.2762" filterUnits="userSpaceOnUse" color-interpolation-filters="sRGB">
<feFlood flood-opacity="0" result="BackgroundImageFix"/>
<feColorMatrix in="SourceAlpha" type="matrix" values="0 0 0 0 0 0 0 0 0 0 0 0 0 0 0 0 0 0 127 0" result="hardAlpha"/>
<feOffset/>
<feGaussianBlur stdDeviation="1.56905"/>
<feComposite in2="hardAlpha" operator="out"/>
<feColorMatrix type="matrix" values="0 0 0 0 1 0 0 0 0 1 0 0 0 0 1 0 0 0 1 0"/>
<feBlend mode="normal" in2="BackgroundImageFix" result="effect1_dropShadow_33_153"/>
<feBlend mode="normal" in="SourceGraphic" in2="effect1_dropShadow_33_153" result="shape"/>
</filter>
</defs>
</svg>
