<svg width="30" height="30" viewBox="0 0 30 30" fill="none" xmlns="http://www.w3.org/2000/svg">
<g filter="url(#filter0_d_34_173)">
<path d="M24.1391 12.0624H22.6091C22.5683 11.9359 22.4827 11.8054 22.4378 11.6789L23.5027 10.614C23.8413 10.2754 23.8413 9.76132 23.5027 9.42268L20.5692 6.48919C20.2305 6.15055 19.7164 6.15055 19.3778 6.48919L18.3129 7.55406C18.1865 7.46838 18.0559 7.42758 17.9294 7.3827V5.85271C17.9294 5.38352 17.5459 5 17.0767 5H12.9111C12.4419 5 12.0583 5.38352 12.0583 5.85271V7.3827C11.9319 7.4235 11.8013 7.50918 11.6748 7.55406L10.61 6.48919C10.2713 6.15055 9.75724 6.15055 9.4186 6.48919L6.48511 9.42268C6.31375 9.59404 6.22807 9.8062 6.22807 10.0184C6.22807 10.2305 6.31375 10.4427 6.48511 10.614L7.54998 11.6789C7.4643 11.8054 7.4235 11.9359 7.37862 12.0624H5.85271C5.38352 12.0624 5 12.4459 5 12.9151V17.0849C5 17.5541 5.38352 17.9376 5.85271 17.9376H7.3827C7.4235 18.0641 7.50918 18.1946 7.55406 18.3211L6.48919 19.386C6.31783 19.5573 6.23215 19.7695 6.23215 19.9816C6.23215 20.1938 6.31783 20.406 6.48919 20.5773L9.42268 23.5108C9.76132 23.8494 10.2754 23.8494 10.614 23.5108L11.6789 22.4459C11.8054 22.5316 11.9359 22.5724 12.0624 22.6173V24.1473C12.0624 24.6165 12.4459 25 12.9151 25H17.0849C17.5541 25 17.9376 24.6165 17.9376 24.1473V22.6173C18.0641 22.5765 18.1946 22.4908 18.3211 22.4459L19.386 23.5108C19.7246 23.8494 20.2387 23.8494 20.5773 23.5108L23.5108 20.5773C23.8494 20.2387 23.8494 19.7246 23.5108 19.386L22.4459 18.3211C22.5316 18.1946 22.5724 18.0641 22.6173 17.9376H24.1473C24.6165 17.9376 25 17.5541 25 17.0849V12.9111C24.9918 12.4419 24.6083 12.0624 24.1391 12.0624ZM23.2905 16.2281H22.0135C21.6299 16.2281 21.3321 16.4851 21.2056 16.8237C21.0792 17.2481 20.9078 17.6765 20.6956 18.0559C20.4835 18.3945 20.5692 18.8229 20.8221 19.0759L21.7156 19.9694L19.9735 21.7156L19.08 20.8221C18.7821 20.5651 18.3986 20.5243 18.06 20.6956C17.6765 20.9078 17.2521 21.0792 16.8278 21.2056C16.4892 21.2913 16.2321 21.6299 16.2321 22.0135V23.2905H13.7638V22.0135C13.7638 21.6299 13.5067 21.3321 13.1681 21.2056C12.7438 21.0792 12.3154 20.9078 11.9359 20.6956C11.5973 20.4835 11.1689 20.5692 10.916 20.8221L10.0184 21.7156L8.27621 19.9735L9.16973 19.08C9.42676 18.7821 9.46756 18.3986 9.29621 18.06C9.08405 17.6765 8.91269 17.2521 8.78621 16.8278C8.70053 16.4892 8.36189 16.2321 7.97838 16.2321H6.70135V13.7638H7.97838C8.36189 13.7638 8.65973 13.5067 8.78621 13.1681C8.91269 12.7438 9.08405 12.3154 9.29621 11.9359C9.50836 11.5973 9.42268 11.1689 9.16973 10.916L8.27621 10.0184L10.0184 8.27621L10.9119 9.16973C11.2097 9.42676 11.5932 9.46756 11.9319 9.29621C12.3154 9.08405 12.7397 8.91269 13.164 8.78621C13.5027 8.70053 13.7597 8.36189 13.7597 7.97838V6.70135H16.2281V7.97838C16.2281 8.36189 16.4851 8.65973 16.8237 8.78621C17.2481 8.91269 17.6765 9.08405 18.0559 9.29621C18.3945 9.50836 18.8229 9.42268 19.0759 9.16973L19.9735 8.27621L21.7156 10.0184L20.8221 10.9119C20.5651 11.2097 20.5243 11.5932 20.6956 11.9319C20.9078 12.3154 21.0792 12.7397 21.2056 13.164C21.2913 13.5027 21.6299 13.7597 22.0135 13.7597H23.2905V16.2281Z" fill="white"/>
<path d="M14.9957 10.3611C12.4416 10.3611 10.3608 12.4459 10.3608 14.9959C10.3608 17.5459 12.4416 19.6308 14.9957 19.6308C17.5497 19.6308 19.6305 17.55 19.6305 14.9959C19.6305 12.4419 17.5497 10.3611 14.9957 10.3611ZM14.9957 17.9294C13.38 17.9294 12.0622 16.6116 12.0622 14.9959C12.0622 13.3803 13.38 12.0624 14.9957 12.0624C16.6113 12.0624 17.9292 13.3803 17.9292 14.9959C17.9292 16.6116 16.6113 17.9294 14.9957 17.9294Z" fill="white"/>
</g>
<defs>
<filter id="filter0_d_34_173" x="1.86189" y="1.86189" width="26.2762" height="26.2762" filterUnits="userSpaceOnUse" color-interpolation-filters="sRGB">
<feFlood flood-opacity="0" result="BackgroundImageFix"/>
<feColorMatrix in="SourceAlpha" type="matrix" values="0 0 0 0 0 0 0 0 0 0 0 0 0 0 0 0 0 0 127 0" result="hardAlpha"/>
<feOffset/>
<feGaussianBlur stdDeviation="1.56905"/>
<feComposite in2="hardAlpha" operator="out"/>
<feColorMatrix type="matrix" values="0 0 0 0 1 0 0 0 0 1 0 0 0 0 1 0 0 0 1 0"/>
<feBlend mode="normal" in2="BackgroundImageFix" result="effect1_dropShadow_34_173"/>
<feBlend mode="normal" in="SourceGraphic" in2="effect1_dropShadow_34_173" result="shape"/>
</filter>
</defs>
</svg>
