<svg width="30" height="32" viewBox="0 0 30 32" fill="none" xmlns="http://www.w3.org/2000/svg">
<g filter="url(#filter0_d_34_165)">
<path d="M21.3478 14.0088V10.1817C21.3478 6.77316 18.479 4 14.9528 4C11.4266 4 8.55783 6.77316 8.55783 10.1817V14.0087C7.15643 15.4956 6.30078 17.4712 6.30078 19.6364C6.30078 24.2481 10.1821 28 14.9528 28C19.7236 28 23.6049 24.2481 23.6049 19.6364C23.6049 17.4712 22.7492 15.4956 21.3478 14.0088ZM14.9528 6.18182C17.2345 6.18182 19.0907 7.97622 19.0907 10.1817V12.2929C17.8608 11.6428 16.4507 11.2727 14.9528 11.2727C13.4549 11.2727 12.0448 11.6428 10.8149 12.293V10.1817C10.8149 7.97622 12.6712 6.18182 14.9528 6.18182ZM14.9528 25.8182C11.4266 25.8182 8.55783 23.045 8.55783 19.6364C8.55783 16.2277 11.4266 13.4545 14.9528 13.4545C18.479 13.4545 21.3478 16.2277 21.3478 19.6364C21.3478 23.045 18.479 25.8182 14.9528 25.8182Z" fill="white"/>
<path d="M16.5531 17.3196L14.1536 19.6391L13.3528 18.865C12.9121 18.439 12.1975 18.439 11.7568 18.865C11.3161 19.2911 11.3161 19.9818 11.7568 20.4078L13.3556 21.9533C13.5759 22.1663 13.8648 22.2728 14.1535 22.2728C14.4423 22.2728 14.7312 22.1663 14.9514 21.9533L18.1489 18.8623C18.5897 18.4363 18.5897 17.7456 18.1489 17.3196C17.7084 16.8935 16.9938 16.8935 16.5531 17.3196Z" fill="white"/>
</g>
<defs>
<filter id="filter0_d_34_165" x="3.16267" y="0.861892" width="23.5802" height="30.2762" filterUnits="userSpaceOnUse" color-interpolation-filters="sRGB">
<feFlood flood-opacity="0" result="BackgroundImageFix"/>
<feColorMatrix in="SourceAlpha" type="matrix" values="0 0 0 0 0 0 0 0 0 0 0 0 0 0 0 0 0 0 127 0" result="hardAlpha"/>
<feOffset/>
<feGaussianBlur stdDeviation="1.56905"/>
<feComposite in2="hardAlpha" operator="out"/>
<feColorMatrix type="matrix" values="0 0 0 0 1 0 0 0 0 1 0 0 0 0 1 0 0 0 1 0"/>
<feBlend mode="normal" in2="BackgroundImageFix" result="effect1_dropShadow_34_165"/>
<feBlend mode="normal" in="SourceGraphic" in2="effect1_dropShadow_34_165" result="shape"/>
</filter>
</defs>
</svg>
