<svg width="40" height="38" viewBox="0 0 40 38" fill="none" xmlns="http://www.w3.org/2000/svg">
<g filter="url(#filter0_d_41_2193)">
<path d="M34.8571 6.30769H29.1429V5.15385C29.1429 4.46154 28.6857 4 28 4H12C11.3143 4 10.8571 4.46154 10.8571 5.15385V6.30769H5.14286C4.45714 6.30769 4 6.76923 4 7.46154V10.5769C4 15.6538 7.88571 19.8077 12.9143 20.0385C13.8286 21.3077 15.0857 22.2308 16.5714 22.8077V25.9231H15.4286C13.4857 25.9231 12 27.4231 12 29.3846V32.8462C12 33.5385 12.4571 34 13.1429 34H26.8571C27.5429 34 28 33.5385 28 32.8462V29.3846C28 27.4231 26.5143 25.9231 24.5714 25.9231H23.4286V22.9231C24.9143 22.3462 26.1714 21.3077 27.0857 20.1538C32 19.8077 36 15.7692 36 10.6923V7.46154C36 6.76923 35.5429 6.30769 34.8571 6.30769ZM6.28571 10.5769V8.61538H10.8571V14.3846C10.8571 15.5385 11.0857 16.5769 11.4286 17.5C8.45714 16.6923 6.28571 13.9231 6.28571 10.5769ZM33.7143 10.5769C33.7143 13.8077 31.5429 16.5769 28.5714 17.5C28.9143 16.5769 29.1429 15.5385 29.1429 14.3846V8.61538H33.7143V10.5769Z" fill="white"/>
</g>
<defs>
<filter id="filter0_d_41_2193" x="0.861892" y="0.861892" width="38.2762" height="36.2762" filterUnits="userSpaceOnUse" color-interpolation-filters="sRGB">
<feFlood flood-opacity="0" result="BackgroundImageFix"/>
<feColorMatrix in="SourceAlpha" type="matrix" values="0 0 0 0 0 0 0 0 0 0 0 0 0 0 0 0 0 0 127 0" result="hardAlpha"/>
<feOffset/>
<feGaussianBlur stdDeviation="1.56905"/>
<feComposite in2="hardAlpha" operator="out"/>
<feColorMatrix type="matrix" values="0 0 0 0 1 0 0 0 0 1 0 0 0 0 1 0 0 0 1 0"/>
<feBlend mode="normal" in2="BackgroundImageFix" result="effect1_dropShadow_41_2193"/>
<feBlend mode="normal" in="SourceGraphic" in2="effect1_dropShadow_41_2193" result="shape"/>
</filter>
</defs>
</svg>
