<svg width="28" height="23" viewBox="0 0 28 23" fill="none" xmlns="http://www.w3.org/2000/svg">
<path d="M21.4951 22.2366C22.7417 22.2366 23.7522 21.2261 23.7522 19.9795C23.7522 18.733 22.7417 17.7224 21.4951 17.7224C20.2486 17.7224 19.238 18.733 19.238 19.9795C19.238 21.2261 20.2486 22.2366 21.4951 22.2366Z" fill="white"/>
<path d="M11.3382 22.2366C12.5847 22.2366 13.5953 21.2261 13.5953 19.9795C13.5953 18.733 12.5847 17.7224 11.3382 17.7224C10.0916 17.7224 9.08105 18.733 9.08105 19.9795C9.08105 21.2261 10.0916 22.2366 11.3382 22.2366Z" fill="white"/>
<path d="M25.6232 4.1798L22.8898 14.3368H8.83375L5.87469 2.5039C5.62415 1.49949 4.72131 0.794144 3.6853 0.794144H1.18104C0.558081 0.794144 0.0524902 1.29973 0.0524902 1.92269C0.0524902 2.54565 0.558081 3.05125 1.18104 3.05125H3.6853L6.64323 14.8841C6.8949 15.8885 7.79774 16.5939 8.83375 16.5939H22.8898C23.9078 16.5939 24.7994 15.9122 25.068 14.9304L27.9999 4.1798H25.6232Z" fill="white"/>
<path d="M15.8523 0.794144V7.56545" stroke="white" stroke-width="2" stroke-miterlimit="10"/>
<path d="M20.3665 6.4369L15.8523 10.9511L11.3381 6.4369H20.3665Z" fill="white"/>
</svg>
