<svg width="36" height="32" viewBox="0 0 36 32" fill="none" xmlns="http://www.w3.org/2000/svg">
<path d="M15.1407 21.6222C15.1034 21.2086 15.0299 20.7991 14.9209 20.3984C14.1432 17.539 11.5299 15.4086 8.69154 15.3612C6.14004 15.3178 3.58722 15.3546 1.03441 15.3546C0.929139 15.3625 0.822556 15.3744 0.717285 15.3928C2.80559 17.2692 3.92804 19.5062 3.92804 22.2814C3.92804 25.0566 2.79244 27.3041 0.743604 29.1385L0.787023 29.2043C0.867292 29.2043 0.947563 29.2227 1.02783 29.2227C3.01482 29.2227 5.00181 29.2398 6.98747 29.2227C7.48619 29.2227 7.9928 29.2398 8.49152 29.2227C8.47579 29.1907 8.46217 29.1578 8.45074 29.124C8.40539 28.9943 8.38966 28.856 8.40468 28.7194C8.41971 28.5828 8.46511 28.4513 8.53757 28.3345C8.82607 27.9006 9.15426 27.4944 9.51792 27.1212L9.57844 26.5857C9.29696 26.4253 9.03957 26.226 8.81392 25.9935C8.71585 25.896 8.64077 25.7777 8.59416 25.6475L8.48363 25.3343C8.41575 25.1387 8.41575 24.9259 8.48363 24.7303C8.66917 24.1842 9.18105 23.6881 10.1469 23.1196C10.6009 22.842 11.4286 22.4262 12.676 21.8485L12.755 21.8169C13.1276 21.6792 13.521 21.6062 13.9182 21.6011C14.3338 21.5989 14.7438 21.6973 15.1131 21.888L15.1644 21.9169C15.1512 21.813 15.1407 21.7169 15.1407 21.6222ZM15.0512 22.9552C14.7431 22.6664 14.3352 22.5079 13.913 22.513C13.8472 22.513 13.7814 22.513 13.7103 22.5236C13.6393 22.5341 13.5787 22.5407 13.5011 22.5538C13.4235 22.567 13.3563 22.5841 13.2827 22.6051C13.209 22.6262 13.134 22.6486 13.0576 22.6762C11.847 23.2359 11.0325 23.6438 10.614 23.9C9.87715 24.3386 9.45607 24.711 9.3508 25.0172L9.46264 25.3303C9.58484 25.4524 9.71688 25.5642 9.85741 25.6646C9.8982 25.6922 9.93768 25.7185 9.97716 25.7409C10.0472 25.7833 10.1218 25.8177 10.1995 25.8435C10.2336 25.8546 10.2683 25.8634 10.3035 25.8698C10.3357 25.875 10.3683 25.8777 10.4009 25.8777C10.4555 25.8783 10.5098 25.8694 10.5614 25.8514L10.5956 25.8396L10.4035 27.5226C10.0029 27.917 9.64154 28.3493 9.32449 28.8135C9.332 28.8336 9.34608 28.8507 9.36445 28.8619C9.38282 28.8731 9.40442 28.8778 9.4258 28.8753C9.47533 28.8729 9.52419 28.8627 9.57056 28.8451L9.58239 28.8793L9.56002 28.9266L9.66793 29.0069L9.79952 28.9214L9.99163 28.9911C10.7385 28.7995 11.4494 28.4884 12.097 28.07C12.3041 27.8296 12.6953 27.4432 13.2708 26.9107C13.5901 26.5791 13.8761 26.2721 14.1288 25.9896C14.6757 25.1044 15.0195 24.1089 15.1354 23.0749V23.0749L15.0512 22.9552ZM12.0852 25.9422L12.051 25.9541L12.3142 24.5974C12.2773 24.4912 12.7304 24.2504 13.6735 23.875L13.709 23.8618L13.7208 23.8973C13.2573 24.6419 12.7065 25.3284 12.0799 25.9422H12.0852Z" fill="#FFA71A"/>
<path d="M16.5947 15.2627L16.6566 15.1798H17.4606C19.7252 15.1798 21.9898 15.1522 24.2545 15.1943C25.7582 15.2079 27.215 15.7198 28.3969 16.6496L28.3798 16.6562C27.122 17.0918 26.0326 17.911 25.2651 18.9985C25.2506 19.0196 25.2361 19.0419 25.223 19.0643C24.8838 19.6281 24.5933 20.2198 24.3545 20.8328C24.061 20.2591 23.8387 19.8565 23.6794 19.6143C23.6591 19.5834 23.6372 19.5535 23.6136 19.5249C23.4454 19.3272 23.2351 19.1698 22.998 19.0641C22.761 18.9584 22.5032 18.9072 22.2438 18.9143C21.9078 18.9204 21.5754 18.9841 21.2608 19.1025C20.9694 19.2151 20.7227 19.4198 20.5582 19.6854C20.452 19.8402 20.3964 20.0241 20.3989 20.2117V20.8618L20.0042 23.0646C19.7555 23.8541 19.5844 24.4621 19.4778 24.9252L19.4449 25.0055L19.3318 25.0463L19.291 25.0555C19.6134 24.1178 19.7753 23.1324 19.77 22.1408C19.791 19.3656 18.6515 17.1049 16.5947 15.2627Z" fill="#FFA71A"/>
<path d="M30.2588 25.2266C30.2798 25.216 30.3009 25.2055 30.3206 25.1937C29.7583 26.3516 28.8837 27.3293 27.7953 28.0166C26.7069 28.7039 25.4482 29.0734 24.161 29.0834C22.1872 29.0913 20.2133 29.0834 18.2395 29.0834C18.5378 28.886 18.8009 28.7189 19.029 28.5821C19.5225 28.3189 19.9159 28.1149 20.2212 27.9465C20.2873 27.9767 20.3566 27.9992 20.4278 28.0136C20.5095 28.053 20.5945 28.0852 20.6818 28.1097C20.7992 28.1808 20.931 28.2248 21.0676 28.2385C21.2042 28.2522 21.3421 28.2351 21.4713 28.1886C21.9516 28.0189 22.1687 27.5767 22.2898 27.2583C22.3004 27.2316 22.3096 27.2044 22.3174 27.1767C22.524 26.4359 22.6122 26.1937 22.6411 26.124C22.691 26.0425 22.7278 25.9537 22.7503 25.8608C22.9398 25.6736 23.1425 25.5003 23.357 25.3424C23.8741 26.1648 24.0715 26.3648 24.2241 26.4885C24.2814 26.5347 24.3441 26.5736 24.411 26.6043L24.7676 26.7714C24.9232 26.8439 25.0959 26.8715 25.2664 26.851C25.4368 26.8305 25.5981 26.7629 25.7321 26.6556C25.8097 26.6451 25.8854 26.6238 25.9571 26.5924L26.0085 26.5767L26.0743 26.553C26.1098 26.5407 26.1445 26.5262 26.1782 26.5095C26.219 26.499 26.2598 26.4872 26.2993 26.474L26.3335 26.4609C26.4695 26.4133 26.5923 26.3339 26.6914 26.2293C26.812 26.2436 26.9332 26.2506 27.0546 26.2503C27.4731 26.2466 27.8879 26.1714 28.281 26.0279C28.9556 25.8002 29.616 25.5326 30.2588 25.2266Z" fill="#FFA71A"/>
<path d="M30.0195 23.1276L29.8024 23.2053L29.8287 23.279L30.0458 23.2013L30.0195 23.1276ZM30.9801 21.4393C30.9543 21.1294 30.9069 20.8216 30.838 20.5182V20.5656C30.8262 20.6972 30.8156 20.8288 30.8051 20.9604C30.7946 21.092 30.7853 21.2117 30.7761 21.3314C30.7669 21.4512 30.759 21.5657 30.7511 21.6762C30.7432 21.7867 30.738 21.8617 30.7327 21.9499L30.7248 22.0907C30.7248 22.1276 30.7248 22.1644 30.7182 22.1999C30.7182 22.271 30.7104 22.3394 30.7077 22.4052C30.7077 22.4381 30.7077 22.471 30.7077 22.5026C30.7077 22.5631 30.7077 22.6223 30.6998 22.6789C30.6998 22.7592 30.6932 22.8355 30.6919 22.9066C30.6913 22.9171 30.6913 22.9276 30.6919 22.9381V22.9447C30.6919 23.1934 30.6919 23.3803 30.6985 23.5211L30.709 23.5527L30.7564 23.575L30.788 23.5632L30.8104 23.5171L30.8761 23.4935V23.579C30.9011 23.4474 30.9248 23.3158 30.9433 23.1921C30.9512 23.1461 30.9564 23.1 30.963 23.0605C31.0276 22.5224 31.0333 21.9788 30.9801 21.4393ZM30.3893 23.9395H30.2682L30.1722 24.0132L30.184 24.0474L30.2327 24.0737L30.1235 24.1119L30.0287 24.0632L30.0156 24.029L30.1248 23.9908L30.1458 23.9395L30.0985 23.9172L30.0721 23.8435L29.855 23.9198C29.8458 23.9011 29.8379 23.8817 29.8313 23.8619L29.8195 23.8316C29.7918 23.7531 29.775 23.6712 29.7695 23.5882C29.7695 23.554 29.7695 23.5171 29.7629 23.4763L29.8787 23.4224L29.8405 23.3132L29.8063 23.3263L29.759 23.2948C29.7161 23.2638 29.6656 23.2452 29.6129 23.2408C29.5994 23.2388 29.5856 23.2388 29.5721 23.2408L29.5603 23.2053L29.7076 23.1539L29.6813 23.0803L29.0234 23.3105L28.8918 23.3566C28.5358 23.4826 28.1675 23.5708 27.793 23.6198C27.7059 23.6332 27.618 23.6402 27.5299 23.6408C27.4071 23.6436 27.2851 23.6221 27.1706 23.5777C27.1378 23.5634 27.1062 23.5467 27.0759 23.5277C26.9514 23.4497 26.8582 23.3305 26.8127 23.1908L26.7732 23.0816L26.718 22.6868C26.7251 22.4895 26.7426 22.2927 26.7706 22.0973C26.8679 22.0281 26.9586 21.9502 27.0417 21.8644L27.0193 21.7986L26.818 21.8104C27.1039 20.3709 27.9904 19.3866 29.4774 18.8576C29.6654 18.7894 29.8598 18.74 30.0577 18.7102L30.1393 18.6984C30.1156 18.6589 30.0932 18.6194 30.0708 18.5799C29.8139 18.1359 29.507 17.7227 29.1563 17.3483C29.08 17.368 29.0023 17.3917 28.9234 17.4206L28.672 17.5101C27.5924 17.8821 26.6573 18.5847 25.9995 19.5182C25.5775 20.2054 25.2454 20.944 25.0113 21.7157L24.1033 22.1736H24.0862C24.0388 22.1736 23.9849 22.1078 23.9257 21.9762L23.8783 21.9539C23.4186 21.0196 23.0905 20.4024 22.894 20.1024C22.8119 20.0075 22.7093 19.9326 22.5939 19.8834C22.4785 19.8341 22.3534 19.8118 22.2282 19.8182C21.9973 19.8235 21.769 19.868 21.5531 19.9498C21.5202 19.9623 21.4895 19.98 21.4623 20.0024C21.4512 20.0109 21.4406 20.0201 21.4307 20.03C21.4196 20.0399 21.409 20.0504 21.3992 20.0616C21.3641 20.0991 21.3324 20.1397 21.3044 20.1827V20.9169L20.8886 23.2658C20.6811 23.8961 20.5054 24.5364 20.3622 25.1844C20.1096 25.7686 19.9833 26.1963 19.982 26.4713L19.8411 26.5213L19.699 26.341L19.9833 26.0476L19.9583 25.9778L19.753 26.0502L19.7161 25.9462L19.8161 25.9107L19.7911 25.841L19.5859 25.9134L19.299 25.9765L18.7858 26.1976C18.206 27.2661 17.44 28.2224 16.5238 29.0215L16.6278 29.0346C17.4278 28.4741 18.0739 28.0464 18.5661 27.7517C19.2793 27.3806 19.7916 27.1029 20.103 26.9187C20.1095 26.9242 20.1172 26.9282 20.1254 26.9305C20.1345 26.9319 20.1438 26.9319 20.153 26.9305H20.1727C20.197 26.9277 20.2209 26.922 20.2438 26.9134L20.2793 26.9397C20.3195 26.9698 20.3638 26.9937 20.4109 27.0108C20.4397 27.0208 20.4699 27.0261 20.5004 27.0266C20.5242 27.0267 20.5478 27.0227 20.5701 27.0148L20.5938 27.0806L20.6596 27.0582L20.6794 27.0161C20.7136 27.1108 20.811 27.174 20.9702 27.2056L21.0004 27.195L21.0215 27.1529L21.1452 27.2924C21.2347 27.2595 21.3241 27.1292 21.4084 26.8976C21.6233 26.1248 21.765 25.6958 21.8334 25.6107C21.7579 25.3993 22.3387 24.8615 23.5756 23.9974L23.6059 23.9869C24.22 25.0186 24.6108 25.6032 24.7783 25.741L25.1349 25.9068L25.4139 25.6594L25.5771 25.7147L25.6547 25.6133L25.6784 25.6791L25.7442 25.6568L25.7087 25.5554C25.7622 25.5775 25.8193 25.5895 25.8771 25.591C25.9084 25.5917 25.9396 25.5868 25.9692 25.5765L26.0048 25.5633L26.0653 25.4317L26.0205 25.3002C25.9793 25.1903 25.9323 25.0827 25.8797 24.9778C26.2273 25.1885 26.626 25.3 27.0325 25.3002C27.347 25.2969 27.6586 25.2395 27.9536 25.1304C29.0063 24.7549 29.7173 24.4545 30.0866 24.229C30.1748 24.1805 30.2548 24.1184 30.3235 24.0448C30.3779 24.0115 30.3998 23.9751 30.3893 23.9356V23.9395ZM22.4426 23.2658L22.4321 23.2342C22.5199 22.7158 22.5913 22.4328 22.6466 22.3855L22.9282 22.875C22.9405 22.9057 22.7786 23.0346 22.4426 23.2619V23.2658ZM24.8191 23.2303L24.8573 23.2092L24.8652 23.3L24.8191 23.2303ZM29.8011 19.7458C28.8168 20.0958 28.197 20.6511 27.8878 21.4749C27.8878 21.4867 27.8983 21.4999 27.9023 21.5117L27.9259 21.5775C27.9825 21.7368 27.9941 21.9087 27.9595 22.0741C27.925 22.2396 27.8455 22.3924 27.7299 22.5157C27.7088 22.5381 27.6865 22.5618 27.6628 22.5842C27.6628 22.6105 27.6628 22.6368 27.6628 22.6618L27.672 22.725H27.7049C28.0545 22.676 28.3975 22.5878 28.7273 22.4618L29.3853 22.2302C29.4841 22.1952 29.5883 22.1775 29.6932 22.1776C29.7304 22.1756 29.7678 22.1756 29.805 22.1776C29.8366 21.5999 29.8958 20.8051 29.9958 19.6905C29.9235 19.7011 29.8629 19.7195 29.8011 19.7366V19.7458ZM29.7932 22.1763V22.2407C29.8485 22.2251 29.9055 22.2159 29.9629 22.2131C29.908 22.1933 29.8511 22.1796 29.7932 22.1723V22.1763Z" fill="#FFA71A"/>
<path d="M16.5568 12.2241C18.399 10.5503 19.3938 8.56466 19.3859 6.12106C19.378 3.67746 18.3635 1.70889 16.5212 0.0443011C16.6936 0.023247 16.7844 0.00350902 16.8634 0.00350902C18.9583 0.00350902 21.0531 -0.00438628 23.1493 0.00350902C24.6088 0.00883455 26.019 0.531731 27.129 1.47916C28.2391 2.4266 28.9771 3.73712 29.2116 5.17757C29.684 8.13831 27.9326 11.0504 25.0942 11.9675C24.5408 12.1442 23.9644 12.2386 23.3836 12.2478C21.2124 12.2781 19.0412 12.257 16.8686 12.2478C16.7936 12.2531 16.7199 12.236 16.5568 12.2241Z" fill="#FFA71A"/>
<path d="M0.827792 0.176008H1.73049C3.58063 0.176008 5.43076 0.162849 7.28089 0.168113C8.08742 0.165864 8.88648 0.322539 9.63244 0.629186C10.3784 0.935834 11.0566 1.38645 11.6284 1.95529C12.2002 2.52412 12.6543 3.20003 12.9647 3.9444C13.2752 4.68878 13.436 5.48703 13.4379 6.29356C13.4391 6.55 13.4237 6.80625 13.3918 7.06071C13.0484 10.0122 10.4469 12.3756 7.47037 12.4045C5.32416 12.4243 3.17797 12.4045 1.03176 12.4045C0.954123 12.4045 0.875162 12.3861 0.727783 12.369C2.54502 10.7005 3.51219 8.70162 3.52404 6.28961C3.53588 3.87759 2.59502 1.86823 0.787 0.257592L0.827792 0.176008Z" fill="#FFA71A"/>
<path d="M15.567 23.7576L15.1552 23.122L15.1196 23.068L15.0459 22.9575C14.7378 22.6687 14.33 22.5103 13.9077 22.5154C13.8419 22.5154 13.7761 22.5154 13.705 22.5259C13.634 22.5364 13.5735 22.543 13.4958 22.5562C13.4182 22.5693 13.3511 22.5877 13.2774 22.6075C13.2037 22.6272 13.1287 22.6509 13.0524 22.6785C11.8418 23.2382 11.0272 23.6462 10.6088 23.9023C9.87189 24.341 9.4508 24.7133 9.34553 25.0195L9.45739 25.3327C9.57959 25.4547 9.71162 25.5665 9.85215 25.6669C9.89295 25.6945 9.93241 25.7209 9.97189 25.7432C10.042 25.7856 10.1166 25.8201 10.1943 25.8459C10.2283 25.857 10.263 25.8658 10.2982 25.8722C10.3304 25.8774 10.363 25.88 10.3956 25.8801C10.4502 25.8807 10.5046 25.8718 10.5561 25.8538L10.5904 25.8419L10.3982 27.5249C9.99763 27.9193 9.63626 28.3516 9.31921 28.8158C9.32673 28.836 9.34081 28.8531 9.35918 28.8643C9.37755 28.8755 9.39916 28.8802 9.42054 28.8777C9.47008 28.8752 9.51892 28.865 9.56528 28.8474L9.57712 28.8816L9.55476 28.929L9.66266 29.0093L9.79425 28.9237L9.98636 28.9935L10.0206 29.0053L10.0324 29.0395L10.0101 29.0869H10.1272C9.97365 30.5089 9.93811 31.3366 10.0206 31.57L10.0456 31.6397L10.389 31.8332L10.4338 31.7384L10.5285 31.7832L10.6206 31.7108L10.6562 31.6989L10.7075 31.72L10.8391 31.6358L10.8746 31.6226L10.8996 31.6924C11.1084 31.6187 11.1961 31.4296 11.1628 31.1252C11.243 30.4673 11.3194 30.1225 11.3917 30.0962L11.3799 30.062L11.3325 30.0396L11.4023 30.0146C11.3838 29.6777 11.4023 29.5001 11.4496 29.4882L11.4838 29.4751L11.5312 29.4975L11.5194 29.4633L11.5891 29.4382C11.6057 29.253 11.6618 29.0736 11.7536 28.9119C11.801 28.8948 11.8523 28.7066 11.9076 28.3461C11.9076 28.3013 11.9681 28.2145 12.0839 28.0829C12.2909 27.8425 12.6822 27.4561 13.2576 26.9236C13.577 26.592 13.863 26.2849 14.1156 26.0025C14.1709 25.9419 14.2235 25.884 14.2735 25.8261C14.5771 25.4823 14.8279 25.1792 15.0262 24.9169C15.0657 24.8655 15.1012 24.8155 15.1367 24.7669C15.2467 24.6173 15.347 24.4609 15.4368 24.2984C15.5064 24.1802 15.5545 24.0505 15.5789 23.9155C15.5828 23.8853 15.5828 23.8548 15.5789 23.8247C15.5781 23.8019 15.5741 23.7793 15.567 23.7576V23.7576ZM12.0799 25.9419L12.0457 25.9538L12.3089 24.5971C12.2721 24.491 12.7252 24.2501 13.6682 23.8747L13.7037 23.8615L13.7156 23.8971C13.2537 24.6414 12.7046 25.3279 12.0799 25.9419V25.9419Z" fill="#FFC45C"/>
<path d="M30.0207 23.126L29.8038 23.2036L29.83 23.2767L30.0468 23.1991L30.0207 23.126Z" fill="#FFC45C"/>
<path d="M29.4929 18.8747C29.681 18.8065 29.8754 18.7571 30.0732 18.7273L30.1548 18.7155C30.2114 18.7155 30.2693 18.7036 30.3259 18.701C30.6654 18.5799 30.7531 18.2895 30.5891 17.8299L30.4733 17.5048C30.3913 17.4503 30.3029 17.4061 30.2101 17.3733C30.054 17.3168 29.8891 17.2887 29.7232 17.2904C29.5372 17.2924 29.3523 17.3189 29.1732 17.3693C29.0969 17.389 29.0192 17.4127 28.9403 17.4417L28.6889 17.5312C27.6093 17.9032 26.6742 18.6057 26.0164 19.5392C25.5944 20.2265 25.2623 20.965 25.0281 21.7367L24.1202 22.1947H24.1031C24.0557 22.1947 24.0017 22.1289 23.9425 21.9973L23.8952 21.9749C23.4355 21.0406 23.1074 20.4235 22.9109 20.1235C22.8288 20.0286 22.7262 19.9537 22.6108 19.9044C22.4954 19.8552 22.3703 19.8329 22.245 19.8392C22.0142 19.8445 21.7859 19.889 21.57 19.9708C21.5371 19.9833 21.5064 20.0011 21.4792 20.0234C21.468 20.0319 21.4575 20.0411 21.4476 20.0511C21.4364 20.0609 21.4259 20.0715 21.416 20.0827C21.381 20.1202 21.3493 20.1607 21.3213 20.2037V20.938L20.9055 23.2868C20.698 23.9171 20.5223 24.5575 20.3791 25.2054C20.1265 25.7897 20.0001 26.2173 19.9988 26.4923L19.858 26.5423L19.7159 26.3621L20.0001 26.0686L19.9751 25.9989L19.7699 26.0713L19.733 25.9673L19.833 25.9318L19.808 25.862L19.6028 25.9344L19.3159 25.9976L18.8027 26.2186L17.2236 26.8963L17.3276 26.3134C17.5837 23.5833 17.7447 22.0635 17.8105 21.7538C17.6842 21.3977 17.282 21.2161 16.6038 21.209L16.3986 21.2814C16.1959 21.3538 16.0722 21.5525 16.0262 21.8815L16.0972 21.9736C16.0972 22.2569 16.0942 22.5535 16.088 22.8631C16.0652 23.5798 16.0082 24.3694 15.917 25.2317C15.8292 26.0581 15.7112 26.9516 15.563 27.9122C15.413 28.1464 15.3586 28.3219 15.3998 28.4385L15.5222 28.7833L15.5696 28.8057L15.5459 28.8491L15.5577 28.8846C15.9341 29.1057 16.1972 29.2162 16.3473 29.2162C16.3695 29.2169 16.3918 29.2137 16.413 29.207L16.4486 29.1938L16.6473 29.0557C17.4473 28.4951 18.0934 28.0674 18.5856 27.7727C19.2988 27.4016 19.8111 27.124 20.1225 26.9397C20.1291 26.9452 20.1367 26.9492 20.1449 26.9516C20.1541 26.9529 20.1634 26.9529 20.1725 26.9516H20.1923C20.2166 26.9487 20.2404 26.943 20.2633 26.9345L20.2988 26.9608C20.3393 26.9904 20.3835 27.0143 20.4304 27.0318C20.4592 27.0418 20.4894 27.0472 20.5199 27.0476C20.5437 27.0478 20.5673 27.0438 20.5897 27.0358L20.6133 27.1016L20.6791 27.0792L20.6989 27.0371C20.7331 27.1318 20.8305 27.195 20.9897 27.2266L21.02 27.2161L21.041 27.174L21.1647 27.3134C21.2542 27.2805 21.3437 27.1503 21.4279 26.9187C21.6428 26.1458 21.7845 25.7168 21.8529 25.6318C21.7775 25.4203 22.3582 24.8826 23.5951 24.0185L23.6254 24.0079C24.2395 25.0396 24.6303 25.6243 24.7979 25.762L25.1545 25.9278L25.4334 25.6804L25.5966 25.7357L25.6742 25.6344L25.6979 25.7002L25.7637 25.6778L25.7282 25.5765C25.7817 25.5985 25.8388 25.6106 25.8966 25.612C25.9279 25.612 25.959 25.6071 25.9887 25.5975L26.0243 25.5844L26.0848 25.4528L26.04 25.3212C25.9988 25.2113 25.9518 25.1037 25.8993 24.9988C26.2468 25.2095 26.6455 25.321 27.052 25.3212C27.3665 25.318 27.6781 25.2606 27.9731 25.1514C29.0258 24.776 29.7368 24.4755 30.1061 24.2501C30.1943 24.2016 30.2743 24.1394 30.343 24.0658C30.3886 24.0132 30.4044 23.9693 30.3904 23.9343H30.2693L30.1732 24.0079L30.1851 24.0422L30.2338 24.0685L30.1246 24.1079L30.0298 24.0579L30.0167 24.0237L30.1259 23.9856L30.1469 23.9343L30.0996 23.9119L30.0732 23.8382L29.8561 23.9145L29.8311 23.9672L29.843 24.0027L29.8943 24.0237L29.8206 24.0501C29.7956 23.979 29.7535 23.9435 29.689 23.9435C29.6652 23.9437 29.6416 23.9482 29.6193 23.9566L29.6074 23.9224L29.6772 23.8974L29.6508 23.8237L29.5811 23.8487V23.6066L29.5113 23.6316L29.4982 23.5961L29.7614 23.4711L29.8772 23.4171L29.839 23.3079L29.8048 23.321L29.7574 23.2895C29.7145 23.2585 29.664 23.2399 29.6114 23.2355C29.5978 23.2335 29.5841 23.2335 29.5706 23.2355L29.5587 23.2L29.7061 23.1487L29.6798 23.075L29.0218 23.3053L28.8903 23.3513C28.5342 23.4773 28.166 23.5655 27.7915 23.6145C27.7044 23.6279 27.6164 23.6349 27.5283 23.6355C27.4056 23.6383 27.2835 23.6169 27.1691 23.5724C27.1363 23.5581 27.1046 23.5414 27.0743 23.5224C26.9498 23.4444 26.8567 23.3252 26.8112 23.1855L26.7717 23.0763L26.7164 22.6815C26.7235 22.4842 26.7411 22.2875 26.769 22.092C26.8664 22.0229 26.9571 21.9449 27.0401 21.8591L27.0178 21.7933L26.8164 21.8051C27.1138 20.3805 28.006 19.4037 29.4929 18.8747ZM22.4424 23.2618L22.4319 23.2303C22.5196 22.7118 22.5911 22.4289 22.6464 22.3815L22.928 22.871C22.9403 22.9043 22.7784 23.0346 22.4424 23.2618ZM24.8189 23.2263L24.8571 23.2053L24.865 23.2961L24.8189 23.2263Z" fill="#FFC45C"/>
<path d="M35.7172 20.6918C35.5663 20.8875 34.9592 21.2893 33.896 21.8972C32.6441 22.5929 32.0498 23.0293 32.113 23.2065C32.1113 23.2837 32.0931 23.3597 32.0598 23.4293C32.0264 23.499 31.9786 23.5607 31.9195 23.6105L31.8853 23.6236L31.6221 23.5263L31.5524 23.5513L31.3984 23.646C31.3932 23.6352 31.3856 23.6258 31.3763 23.6183C31.367 23.6108 31.3561 23.6054 31.3445 23.6026H31.3247C31.3062 23.5982 31.2872 23.5956 31.2682 23.5947H31.234H31.1945C31.1682 23.5947 31.1405 23.5947 31.1102 23.5947L31.0116 23.6026L30.9221 23.6697L30.876 23.65L30.8655 23.621V23.5026L30.7997 23.5263L30.7773 23.5723L30.7457 23.5842L30.6984 23.5618L30.6879 23.5302C30.6786 23.3894 30.676 23.2025 30.6813 22.9538V22.9473C30.6806 22.9368 30.6806 22.9262 30.6813 22.9157C30.6813 22.8446 30.6813 22.7683 30.6892 22.6881C30.6892 22.6315 30.6892 22.5722 30.6971 22.5117C30.6971 22.4801 30.6971 22.4472 30.6971 22.4143C30.6971 22.3485 30.6971 22.2828 30.7076 22.2091C30.7076 22.1735 30.7076 22.1367 30.7142 22.0998L30.7221 21.959C30.7221 21.8709 30.7339 21.7801 30.7405 21.6853C30.7471 21.5906 30.7563 21.4603 30.7655 21.3406C30.7747 21.2208 30.7839 21.0971 30.7944 20.9695C30.805 20.8419 30.8155 20.7063 30.8273 20.5747V20.5274C30.8352 20.4313 30.8431 20.3339 30.8523 20.2352C30.8523 20.1852 30.8602 20.1352 30.8655 20.0839C30.8708 20.0326 30.8734 19.9813 30.8787 19.9299C30.8918 19.7799 30.9063 19.6273 30.9208 19.4681C30.9202 19.4567 30.9202 19.4453 30.9208 19.4339C30.9458 19.1707 30.9721 18.8943 30.9997 18.6062C31.0129 18.4746 31.026 18.3364 31.0392 18.1982C31.055 18.0377 31.0721 17.8732 31.0892 17.7061C31.0997 17.6026 31.1102 17.4973 31.1208 17.3903C31.1313 17.2837 31.1418 17.1758 31.1537 17.0666C31.1379 17.0245 31.1295 16.98 31.1287 16.935C31.1273 16.9197 31.1273 16.9043 31.1287 16.8889C31.1314 16.8707 31.1353 16.8527 31.1405 16.835C31.1458 16.8172 31.1529 16.8 31.1616 16.7837C31.1686 16.7678 31.1774 16.7528 31.1879 16.7389C31.1876 16.7359 31.1876 16.7328 31.1879 16.7297V16.7297C31.1968 16.7173 31.2065 16.7054 31.2168 16.6942C31.2304 16.678 31.2454 16.663 31.2616 16.6494L31.2761 16.6363C31.2892 16.6258 31.3037 16.6139 31.3195 16.6034C31.3404 16.5871 31.3624 16.5722 31.3853 16.5587C31.409 16.5442 31.434 16.5297 31.4603 16.5166L32.7762 16.0902L34.0394 15.5283C34.0419 15.5364 34.045 15.5443 34.0486 15.552C34.0556 15.5644 34.0635 15.5763 34.0723 15.5875C34.076 15.5926 34.0804 15.597 34.0855 15.6007L34.1013 15.6125H34.117H34.1328H34.1552C34.1768 15.612 34.1981 15.608 34.2184 15.6007L34.2407 15.6665L34.1407 15.702L34.1526 15.7375C34.1946 15.7211 34.2391 15.7118 34.2842 15.7099H34.3079C34.314 15.7105 34.32 15.7123 34.3254 15.7153C34.3308 15.7182 34.3356 15.7222 34.3394 15.727C34.3433 15.7313 34.3464 15.7362 34.3486 15.7415L34.3605 15.777L34.2289 15.8231C34.2364 15.8425 34.2501 15.859 34.268 15.8697C34.2859 15.8804 34.3069 15.8849 34.3276 15.8823C34.3728 15.8801 34.4172 15.8703 34.4592 15.8533L34.4829 15.9205L34.3829 15.956L34.3934 15.9862L34.7882 15.8454L35.15 15.9047L35.1276 15.952L35.1395 15.9823L35.175 15.9705L35.2 15.9639H35.2263H35.2487C35.2591 15.9619 35.2699 15.9619 35.2803 15.9639H35.2895H35.2974H35.3106C35.3146 15.9662 35.3182 15.9694 35.3211 15.9731C35.3252 15.9777 35.3283 15.9831 35.3303 15.9889C35.3592 16.0687 34.9794 16.3025 34.1907 16.6902C33.9118 16.7902 33.4354 17.1341 32.7617 17.7219L32.6538 18.5851L32.688 18.5733C32.7915 18.4855 33.1236 18.3298 33.6841 18.1061L33.7854 18.1838L33.6973 18.2548L33.7078 18.2851C33.7818 18.2553 33.8599 18.2367 33.9394 18.2298C33.9736 18.2298 33.9933 18.2377 33.9999 18.2561L33.8578 18.3877L33.8683 18.4193L33.9341 18.3956V18.5075C33.9736 18.618 34.0934 18.6759 34.2921 18.6812L34.3039 18.7128L34.2855 18.7588L34.296 18.7891L34.3328 18.7772L34.3618 18.7693H34.3763H34.4197H34.4447C34.4575 18.7713 34.4692 18.7779 34.4776 18.7878V18.7878C34.4783 18.7921 34.4783 18.7966 34.4776 18.8009L34.4894 18.8325C34.5131 18.8992 33.8767 19.3242 32.5801 20.1076C32.4064 20.1694 32.3024 20.5813 32.2669 21.3458L34.5223 20.0957L34.546 20.1615L34.5802 20.1497L34.7355 20.055C34.7517 20.0874 34.7759 20.1152 34.8059 20.1357C34.8358 20.1562 34.8704 20.1687 34.9066 20.1721C34.9249 20.1721 34.9432 20.169 34.9605 20.1629L34.9974 20.2629C34.9651 20.2785 34.9366 20.3009 34.9139 20.3287C34.8912 20.3564 34.8748 20.3887 34.8658 20.4234L34.796 20.4484L34.8066 20.4787L35.0092 20.4076L35.0342 20.4774L34.8684 20.5366L34.9145 20.555L34.9263 20.5905L34.9026 20.6339C35.0346 20.5811 35.174 20.5496 35.3158 20.5405C35.349 20.5363 35.3828 20.5406 35.4138 20.5531C35.4449 20.5655 35.4723 20.5856 35.4935 20.6116L35.4737 20.6576C35.5053 20.6508 35.5375 20.6473 35.5698 20.6471H35.6053H35.6158C35.6242 20.6481 35.6322 20.6508 35.6395 20.655C35.6482 20.6584 35.6558 20.6638 35.6619 20.6708C35.6721 20.6701 35.6823 20.6717 35.6918 20.6753C35.7014 20.6789 35.71 20.6846 35.7172 20.6918V20.6918Z" fill="#FFC45C"/>
</svg>
