<svg width="30" height="30" viewBox="0 0 30 30" fill="none" xmlns="http://www.w3.org/2000/svg">
<g filter="url(#filter0_d_34_167)">
<path fill-rule="evenodd" clip-rule="evenodd" d="M22.7778 12.9822C22.7778 8.48889 19.2889 5 15 5C10.7111 5 7.22222 8.48889 7.22222 12.7778C5.93 13.4411 5 14.6622 5 16.1111V18.3333C5 19.2174 5.35119 20.0652 5.97631 20.6904C6.60143 21.3155 7.44928 21.6667 8.33333 21.6667H9.44444C9.73913 21.6667 10.0217 21.5496 10.2301 21.3412C10.4385 21.1329 10.5556 20.8502 10.5556 20.5556V13.8889C10.5556 13.5942 10.4385 13.3116 10.2301 13.1032C10.0217 12.8948 9.73913 12.7778 9.44444 12.7778C9.44444 11.3044 10.0298 9.89128 11.0716 8.84941C12.1135 7.80754 13.5266 7.22222 15 7.22222C16.4734 7.22222 17.8865 7.80754 18.9284 8.84941C19.9702 9.89128 20.5556 11.3044 20.5556 12.7778C20.2609 12.7778 19.9783 12.8948 19.7699 13.1032C19.5615 13.3116 19.4444 13.5942 19.4444 13.8889V20.5556C19.4444 20.8502 19.5615 21.1329 19.7699 21.3412C19.9783 21.5496 20.2609 21.6667 20.5556 21.6667V22.7778H17.6756C17.4467 22.1322 16.8356 21.6667 16.1111 21.6667H13.8889C13.4469 21.6667 13.0229 21.8423 12.7104 22.1548C12.3978 22.4674 12.2222 22.8913 12.2222 23.3333C12.2222 23.7754 12.3978 24.1993 12.7104 24.5118C13.0229 24.8244 13.4469 25 13.8889 25H20.5556C21.1449 25 21.7102 24.7659 22.1269 24.3491C22.5437 23.9324 22.7778 23.3671 22.7778 22.7778V21.4633C23.4264 21.2354 23.9883 20.812 24.3863 20.2515C24.7843 19.6909 24.9987 19.0208 25 18.3333V16.1111C24.9988 15.4238 24.7844 14.7537 24.3864 14.1933C23.9884 13.6329 23.4264 13.2098 22.7778 12.9822L22.2222 11.6667Z" fill="white"/>
</g>
<defs>
<filter id="filter0_d_34_167" x="1.86189" y="1.86189" width="26.2762" height="26.2762" filterUnits="userSpaceOnUse" color-interpolation-filters="sRGB">
<feFlood flood-opacity="0" result="BackgroundImageFix"/>
<feColorMatrix in="SourceAlpha" type="matrix" values="0 0 0 0 0 0 0 0 0 0 0 0 0 0 0 0 0 0 127 0" result="hardAlpha"/>
<feOffset/>
<feGaussianBlur stdDeviation="1.56905"/>
<feComposite in2="hardAlpha" operator="out"/>
<feColorMatrix type="matrix" values="0 0 0 0 1 0 0 0 0 1 0 0 0 0 1 0 0 0 1 0"/>
<feBlend mode="normal" in2="BackgroundImageFix" result="effect1_dropShadow_34_167"/>
<feBlend mode="normal" in="SourceGraphic" in2="effect1_dropShadow_34_167" result="shape"/>
</filter>
</defs>
</svg>
